:version 1.10
:name ASF
:units
  mass 1
  length 1
  angle deg
:documentation
  ASF file generated by Kaydara
:root
  axis xyz
  order  tx ty tz rx ry rz
  position 0 0 0
  orientation 0 0 0
:bonedata
  begin
    id 1
    name LeftUpLegDummy
    direction 1 -2.30186e-007 -8.31532e-007
    length 2.93387
    axis 0 0 0 xyz
  end
  begin
    id 2
    name LeftUpLeg
    direction -1.82929e-007 -1 -1.48925e-009
    length 17.3336
    axis -3.48766 0.00143442 -0.000521554 xyz
    dof rx ry rz
  end
  begin
    id 3
    name LeftLeg
    direction -1.82929e-007 -1 -5.23717e-011
    length 14.9995
    axis 3.68178 -0.00654042 -0.000282425 xyz
    dof rx ry rz
  end
  begin
    id 4
    name LeftFoot
    direction 8.31532e-007 -4.54534e-011 1
    length 6.74421
    axis 1.87234e-006 4.66016e-005 -5.96866e-006 xyz
    dof rx ry rz
  end
  begin
    id 5
    name LeftToes
    direction 0.00818058 -0.00485161 0.999955
    length 3.85048
    axis 1.06247e-005 4.65869e-005 -5.96999e-006 xyz
    dof rx ry rz
  end
  begin
    id 6
    name SpineDummy
    direction -5.8607e-008 0.943407 -0.331637
    length 5.93572
    axis 0 0 0 xyz
  end
  begin
    id 7
    name Spine
    direction -1.04988e-007 0.999988 0.00495137
    length 10.1015
    axis -0.001389 0.000121417 6.61666e-006 xyz
    dof rx ry rz
  end
  begin
    id 8
    name Spine1
    direction 0 0 0
    length 0
    axis -0.001389 0.00012144 6.56766e-006 xyz
    dof rx ry rz
  end
  begin
    id 9
    name RightShoulderDummy
    direction -0.98348 0.17941 -0.0240696
    length 3.59882
    axis -0.001389 0.00012144 6.56766e-006 xyz
  end
  begin
    id 10
    name RightShoulder
    direction -0.978693 0.204882 0.0135597
    length 2.70001
    axis 0.215806 0.000203631 -0.00679732 xyz
    dof rx ry rz
  end
  begin
    id 11
    name RightArm
    direction -1 3.85509e-006 8.31394e-007
    length 10.2459
    axis -23.2009 -0.134239 -0.964098 xyz
    dof rx ry rz
  end
  begin
    id 12
    name RightForeArm
    direction -1 3.85569e-006 8.3129e-007
    length 8.16799
    axis -9.92322 0.0658061 0.17887 xyz
    dof rx ry rz
  end
  begin
    id 13
    name RightHand
    direction -0.992843 -0.0414604 0.112003
    length 5.28593
    axis -0.00960638 0.00330669 -0.185225 xyz
    dof rx ry rz
  end
  begin
    id 14
    name LeftShoulder1Dummy
    direction 0.983523 0.179172 -0.0240748
    length 3.59866
    axis -0.001389 0.00012144 6.56766e-006 xyz
  end
  begin
    id 15
    name LeftShoulder1
    direction 0.978627 0.205195 0.0135605
    length 2.70019
    axis -0.001389 0.00012144 6.57583e-006 xyz
    dof rx ry rz
  end
  begin
    id 16
    name LeftArm
    direction 1 3.51895e-006 -8.60188e-007
    length 10.2459
    axis -23.1894 0.134785 0.967513 xyz
    dof rx ry rz
  end
  begin
    id 17
    name LeftForeArm
    direction 1 3.51921e-006 -7.32029e-007
    length 8.16799
    axis -9.91835 -0.0656957 -0.177789 xyz
    dof rx ry rz
  end
  begin
    id 18
    name LeftHand
    direction 0.992938 -0.0411636 0.11126
    length 5.32135
    axis -0.00960237 -0.00340661 0.185177 xyz
    dof rx ry rz
  end
  begin
    id 19
    name HEadDummy
    direction 1.01974e-006 0.999861 -0.016675
    length 2.99946
    axis -0.001389 0.00012144 6.56766e-006 xyz
  end
  begin
    id 20
    name HEad
    direction -0.0222689 0.980941 0.193023
    length 5.12695
    axis -0.001389 0.00012144 6.56766e-006 xyz
    dof rx ry rz
  end
  begin
    id 21
    name RightUpLegDummy
    direction -1 2.30186e-007 8.31532e-007
    length 2.93387
    axis 0 0 0 xyz
  end
  begin
    id 22
    name RightUpLeg
    direction -1.82966e-007 -1 1.56832e-007
    length 17.3336
    axis -3.4909 -0.000906625 0.00028951 xyz
    dof rx ry rz
  end
  begin
    id 23
    name RightLeg
    direction -1.82786e-007 -1 -1.80317e-007
    length 14.9995
    axis 3.68513 0.0193739 -0.131021 xyz
    dof rx ry rz
  end
  begin
    id 24
    name RightFoot
    direction 8.31721e-007 -4.63324e-011 1
    length 6.74421
    axis 4.81691e-005 -0.120479 -0.188785 xyz
    dof rx ry rz
  end
  begin
    id 25
    name RightToes
    direction 0.00124746 -0.014064 0.9999
    length 3.85082
    axis 0.000481921 0.542163 -0.142575 xyz
    dof rx ry rz
  end
:hierarchy
  begin
    root LeftUpLegDummy SpineDummy RightUpLegDummy
    LeftUpLegDummy LeftUpLeg
    LeftUpLeg LeftLeg
    LeftLeg LeftFoot
    LeftFoot LeftToes
    SpineDummy Spine
    Spine Spine1
    Spine1 RightShoulderDummy LeftShoulder1Dummy HEadDummy
    RightShoulderDummy RightShoulder
    RightShoulder RightArm
    RightArm RightForeArm
    RightForeArm RightHand
    LeftShoulder1Dummy LeftShoulder1
    LeftShoulder1 LeftArm
    LeftArm LeftForeArm
    LeftForeArm LeftHand
    HEadDummy HEad
    RightUpLegDummy RightUpLeg
    RightUpLeg RightLeg
    RightLeg RightFoot
    RightFoot RightToes
  end

:SAMPLES-PER-SECOND 30
:FULLY-SPECIFIED
:DEGREES
196
root  4.30954 34.3407 0.804134 12.1209 41.8165 -6.00689
LeftUpLeg  -30.6366 -14.6964 12.4781
LeftLeg  17.0263 -21.4207 -4.95319
LeftFoot  7.26709 0.178015 -2.80273
LeftToes  -27.3058 1.85109e-006 5.31342e-008
Spine  6.60408 11.2442 -4.72944
Spine1  12.4302 23.3289 -8.75081
RightShoulder  0.101404 15.624 -2.71126
RightArm  -66.0923 35.5734 126.405
RightForeArm  -178.882 33.5609 6.26466
RightHand  3.10436 -10.6615 -31.9987
LeftShoulder1  0.00810676 -2.19989 -5.09293
LeftArm  -19.4852 9.7982 -58.5148
LeftForeArm  28.1873 -26.9956 -5.14558
LeftHand  0.111371 2.41408 4.89802
HEad  -47.5246 -54.6362 45.8842
RightUpLeg  -10.4059 -15.2149 -10.5132
RightLeg  16.1404 -12.2313 -2.67567
RightFoot  19.6268 0.773689 -4.09303
RightToes  -41.3118 -0.229046 -0.322412
197
root  4.32366 34.4522 1.2683 11.7185 44.3039 -6.57834
LeftUpLeg  -30.0312 -13.8525 12.0588
LeftLeg  16.4504 -20.5415 -4.54824
LeftFoot  7.45984 0.179045 -2.74593
LeftToes  -25.3993 1.85109e-006 5.31342e-008
Spine  6.63109 10.4501 -4.12836
Spine1  12.6007 21.6985 -7.63677
RightShoulder  0.123901 16.2517 -1.30299
RightArm  -72.3172 32.0784 117.745
RightForeArm  175.091 32.2973 5.96156
RightHand  2.80565 -9.97007 -30.9752
LeftShoulder1  -0.00316137 -1.96302 -5.19177
LeftArm  -23.6255 13.4341 -56.9797
LeftForeArm  30.158 -25.3026 -4.77249
LeftHand  0.151211 2.84657 5.69638
HEad  -42.851 -55.4385 42.3914
RightUpLeg  -10.5908 -14.8538 -11.4516
RightLeg  12.6848 -9.12285 -1.43565
RightFoot  25.0919 0.923883 -3.77223
RightToes  -46.2151 -0.269937 -0.347472
198
root  4.3008 34.5445 1.70115 10.8923 45.927 -7.54916
LeftUpLeg  -29.283 -11.1725 10.9685
LeftLeg  16.5272 -17.9666 -4.0253
LeftFoot  7.19063 0.142932 -2.27452
LeftToes  -22.2221 1.85109e-006 5.31342e-008
Spine  6.60012 9.73452 -3.53318
Spine1  12.6037 20.2506 -6.56128
RightShoulder  0.159054 17.0458 0.447734
RightArm  -79.5458 29.5084 107.725
RightForeArm  168.07 26.6565 4.6746
RightHand  2.49723 -8.77863 -31.3122
LeftShoulder1  -0.00800434 -1.70916 -5.21141
LeftArm  -28.3185 16.8938 -56.0898
LeftForeArm  32.6322 -24.4085 -4.57874
LeftHand  0.211625 3.55886 6.42146
HEad  -39.2296 -55.7663 39.358
RightUpLeg  -11.5754 -16.5795 -11.5018
RightLeg  12.1008 -4.7731 -0.703678
RightFoot  26.9604 0.570135 -2.00048
RightToes  -46.906 -0.275866 -0.350719
199
root  4.2718 34.607 2.1245 10.2101 46.8484 -8.24704
LeftUpLeg  -28.349 -7.82223 9.40781
LeftLeg  16.4905 -14.6742 -3.29812
LeftFoot  6.60441 0.0957287 -1.65902
LeftToes  -18.36 1.85109e-006 5.31342e-008
Spine  6.53748 9.22162 -3.08499
Spine1  12.4632 19.2534 -5.8177
RightShoulder  0.205991 17.672 2.41821
RightArm  -88.2827 27.4694 96.5495
RightForeArm  160.589 16.6332 2.65898
RightHand  2.49386 -8.54215 -32.1046
LeftShoulder1  -0.00909414 -1.67467 -4.87467
LeftArm  -32.9496 19.9227 -55.8904
LeftForeArm  35.4475 -23.9357 -4.47597
LeftHand  0.272848 4.19633 7.05546
HEad  -36.2385 -55.7694 36.5813
RightUpLeg  -12.6053 -18.0505 -11.4162
RightLeg  13.0635 -0.662657 -0.108442
RightFoot  26.9695 0.111615 -0.0879011
RightToes  -45.8781 -0.267059 -0.345862
200
root  4.22132 34.6048 2.55116 9.63688 48.4117 -8.79892
LeftUpLeg  -28.0382 -5.73745 8.60677
LeftLeg  16.8963 -13.5406 -3.14877
LeftFoot  5.93671 0.0686956 -1.32474
LeftToes  -16.7424 1.85109e-006 5.31342e-008
Spine  6.46531 8.71793 -2.64313
Spine1  12.1885 18.5285 -5.33791
RightShoulder  0.305781 18.1311 4.6548
RightArm  -98.1162 24.9106 83.9744
RightForeArm  152.647 2.35742 0.0999324
RightHand  2.32726 -7.48554 -34.1012
LeftShoulder1  -0.00905975 -1.4942 -4.43723
LeftArm  -36.2056 22.1699 -56.0397
LeftForeArm  37.7505 -24.5583 -4.60618
LeftHand  0.331947 4.90743 7.35437
HEad  -32.896 -55.4393 33.748
RightUpLeg  -13.3452 -19.0967 -11.0803
RightLeg  16.0072 0.152834 0.0336408
RightFoot  27.0118 -0.00805198 0.411062
RightToes  -51.7593 -0.318556 -0.371478
201
root  4.15059 34.4681 3.0026 10.3664 50.629 -7.77802
LeftUpLeg  -28.781 -4.81155 7.54802
LeftLeg  18.7895 -14.2112 -3.79393
LeftFoot  4.77958 0.0437606 -1.04854
LeftToes  -16.4453 1.85109e-006 5.31342e-008
Spine  6.61759 8.47564 -2.45728
Spine1  12.0251 18.7071 -5.78605
RightShoulder  0.527448 17.9088 7.0415
RightArm  -105.1 21.2734 74.7884
RightForeArm  143.223 -0.173478 -0.317817
RightHand  2.0875 -6.2073 -36.7392
LeftShoulder1  -0.00807277 -1.242 -4.41059
LeftArm  -37.5822 22.4147 -55.7147
LeftForeArm  38.5726 -25.3416 -4.7739
LeftHand  0.347354 5.22053 7.2285
HEad  -30.7204 -55.1505 31.7487
RightUpLeg  -14.0356 -20.8946 -11.2807
RightLeg  20.4592 -0.892749 -0.270638
RightFoot  24.0942 0.0343092 0.21678
RightToes  -54.8097 -0.346229 -0.382648
